<svg xmlns="http://www.w3.org/2000/svg" width="80" height="35" viewBox="0 0 80 35">
    <g fill="#6080BB" fill-rule="nonzero">
        <path d="M70.562 21.245c-1.294.676-2.575 1.279-3.79 2.002-.665.396-1.077 1.098-1.088 1.944-.024 1.474-.064 2.953.011 4.426.074 1.388 1.166 2.334 2.483 2.295 1.355-.036 2.385-1.03 2.409-2.448.044-2.641.024-5.284.028-7.93 0-.059-.024-.125-.053-.289m-4.887-5.4h-3.079c0-1.158-.046-2.32.01-3.473.05-1.046.458-1.975 1.11-2.778 1.273-1.585 2.964-2.095 4.854-1.989 1.566.095 2.933.705 3.969 1.985.67.83 1.119 1.797 1.13 2.88.055 5.591.083 11.183.09 16.774 0 .628-.123 1.28-.29 1.89-.495 1.8-1.693 2.929-3.352 3.478-1.652.542-3.312.455-4.874-.387-1.556-.838-2.487-2.199-2.63-4.023-.12-1.591-.138-3.197-.092-4.798.066-2.603 1.398-4.336 3.61-5.391 1.386-.662 2.775-1.313 4.154-1.994.149-.073.316-.311.319-.473.017-1.479.03-2.962-.013-4.44-.044-1.47-1.05-2.473-2.419-2.5-1.37-.024-2.387.909-2.483 2.36-.063.935-.014 1.877-.014 2.88M49.5 34.008h-3.114c-.007-.17-.023-.318-.023-.47 0-6.734 0-13.46.003-20.194.001-1.384.282-2.684 1.175-3.779 1.349-1.646 3.132-2.143 5.133-1.978 1.354.11 2.552.633 3.528 1.632 1.116 1.139 1.501 2.576 1.504 4.125.02 6.8.008 13.6.007 20.401 0 .069-.011.134-.023.242h-3.16v-.584c0-6.667-.007-13.331.008-19.994.001-1.049-.275-1.938-1.194-2.494-1.782-1.083-3.759.103-3.84 2.3-.016.498-.001.994-.004 1.492v19.301zM21.414 8.502h3.161c.007.193.023.36.023.526 0 6.674.009 13.344-.005 20.014-.003 1.585-.333 3.071-1.476 4.241-.95.97-2.106 1.477-3.43 1.621-1.276.141-2.498-.015-3.651-.615-1.561-.815-2.452-2.13-2.683-3.896-.088-.68-.1-1.374-.103-2.058-.006-6.396-.002-12.794-.002-19.19v-.64h3.135v.616c0 6.64-.002 13.275 0 19.911 0 .96.182 1.858 1.013 2.453.859.617 1.786.66 2.707.197.87-.44 1.301-1.217 1.301-2.21.01-6.756.01-13.515.01-20.269v-.701zM30.278 8.502h3.138v.63c0 6.634 0 13.271.002 19.905 0 .96.181 1.853 1.015 2.453.86.612 1.789.654 2.706.19.87-.445 1.3-1.22 1.3-2.215.005-6.755.005-13.512.01-20.266v-.693h3.16c.006.196.021.366.021.531 0 6.655.005 13.307-.001 19.962-.005 1.598-.322 3.103-1.484 4.288-.947.97-2.106 1.474-3.431 1.617-1.276.141-2.499-.015-3.651-.62-1.561-.814-2.452-2.13-2.68-3.9-.088-.677-.1-1.366-.1-2.054-.007-6.396-.005-12.793-.005-19.188v-.64zM3.39 31.02h7.014v2.971H0V.011h3.39zM79.434 3.777a1.874 1.874 0 0 1-1.864 1.886 1.873 1.873 0 0 1-1.861-1.886c0-1.039.832-1.883 1.861-1.883 1.03 0 1.864.844 1.864 1.883"/>
    </g>
</svg>
